<mxfile host="65bd71144e">
    <diagram id="BMfhDMeIBNsgMMJCQruJ" name="Page-1">
        <mxGraphModel dx="1271" dy="1877" grid="1" gridSize="10" guides="1" tooltips="1" connect="1" arrows="1" fold="1" page="1" pageScale="1" pageWidth="850" pageHeight="1100" math="0" shadow="0">
            <root>
                <mxCell id="0"/>
                <mxCell id="1" parent="0"/>
                <mxCell id="38" value="Live Out {t0, t2, t3}" style="rounded=1;whiteSpace=wrap;html=1;fillColor=#e51400;fontColor=#000000;strokeColor=#000000;fontSize=22;" vertex="1" parent="1">
                    <mxGeometry x="520" y="180" width="300" height="60" as="geometry"/>
                </mxCell>
                <mxCell id="37" value="Live In {t1, t2, t3}" style="rounded=1;whiteSpace=wrap;html=1;fillColor=#e51400;fontColor=#000000;strokeColor=#000000;fontSize=22;" vertex="1" parent="1">
                    <mxGeometry x="520" y="-10" width="300" height="60" as="geometry"/>
                </mxCell>
                <mxCell id="2" style="edgeStyle=orthogonalEdgeStyle;html=1;fontSize=32;endArrow=block;endFill=1;endSize=20;startArrow=none;" edge="1" parent="1" source="34">
                    <mxGeometry relative="1" as="geometry">
                        <mxPoint x="820" y="280" as="targetPoint"/>
                        <Array as="points">
                            <mxPoint x="820" y="260"/>
                        </Array>
                    </mxGeometry>
                </mxCell>
                <mxCell id="3" value="" style="rounded=1;whiteSpace=wrap;html=1;strokeColor=#000000;" vertex="1" parent="1">
                    <mxGeometry x="90" y="80" width="670" height="80" as="geometry"/>
                </mxCell>
                <mxCell id="4" value="t0" style="text;html=1;strokeColor=none;fillColor=none;align=center;verticalAlign=middle;whiteSpace=wrap;rounded=0;fontSize=17;" vertex="1" parent="1">
                    <mxGeometry x="480" y="105" width="100" height="30" as="geometry"/>
                </mxCell>
                <mxCell id="5" value="2" style="text;html=1;strokeColor=none;fillColor=none;align=center;verticalAlign=middle;whiteSpace=wrap;rounded=0;fontSize=22;" vertex="1" parent="1">
                    <mxGeometry x="650" y="105" width="60" height="30" as="geometry"/>
                </mxCell>
                <mxCell id="6" value="t1" style="text;html=1;strokeColor=none;fillColor=none;align=center;verticalAlign=middle;whiteSpace=wrap;rounded=0;fontSize=17;" vertex="1" parent="1">
                    <mxGeometry x="349.83" y="104.66999999999999" width="100" height="30" as="geometry"/>
                </mxCell>
                <mxCell id="7" value="add t0 t1 t0" style="text;html=1;strokeColor=none;fillColor=none;align=center;verticalAlign=middle;whiteSpace=wrap;rounded=0;fontSize=32;" vertex="1" parent="1">
                    <mxGeometry x="150" y="104.67" width="190" height="30" as="geometry"/>
                </mxCell>
                <mxCell id="8" style="edgeStyle=orthogonalEdgeStyle;html=1;fontSize=32;endArrow=block;endFill=1;endSize=20;entryX=1;entryY=0.25;entryDx=0;entryDy=0;" edge="1" parent="1" source="36" target="3">
                    <mxGeometry relative="1" as="geometry">
                        <mxPoint x="830" y="110" as="targetPoint"/>
                        <mxPoint x="820" y="10" as="sourcePoint"/>
                        <Array as="points">
                            <mxPoint x="820" y="-30"/>
                            <mxPoint x="820" y="60"/>
                        </Array>
                    </mxGeometry>
                </mxCell>
                <mxCell id="9" value="" style="endArrow=none;html=1;strokeWidth=2;" edge="1" parent="1">
                    <mxGeometry width="50" height="50" relative="1" as="geometry">
                        <mxPoint x="750" y="145" as="sourcePoint"/>
                        <mxPoint x="750" y="95" as="targetPoint"/>
                    </mxGeometry>
                </mxCell>
                <mxCell id="10" value="" style="endArrow=none;html=1;strokeWidth=2;" edge="1" parent="1">
                    <mxGeometry width="50" height="50" relative="1" as="geometry">
                        <mxPoint x="750" y="145" as="sourcePoint"/>
                        <mxPoint x="740" y="145" as="targetPoint"/>
                    </mxGeometry>
                </mxCell>
                <mxCell id="11" value="" style="endArrow=none;html=1;strokeWidth=2;" edge="1" parent="1">
                    <mxGeometry width="50" height="50" relative="1" as="geometry">
                        <mxPoint x="750" y="95" as="sourcePoint"/>
                        <mxPoint x="740" y="95" as="targetPoint"/>
                    </mxGeometry>
                </mxCell>
                <mxCell id="12" value="" style="endArrow=none;html=1;strokeWidth=2;" edge="1" parent="1">
                    <mxGeometry width="50" height="50" relative="1" as="geometry">
                        <mxPoint x="610" y="145" as="sourcePoint"/>
                        <mxPoint x="610" y="95" as="targetPoint"/>
                    </mxGeometry>
                </mxCell>
                <mxCell id="13" value="" style="endArrow=none;html=1;strokeWidth=2;" edge="1" parent="1">
                    <mxGeometry width="50" height="50" relative="1" as="geometry">
                        <mxPoint x="620" y="145" as="sourcePoint"/>
                        <mxPoint x="610" y="145" as="targetPoint"/>
                    </mxGeometry>
                </mxCell>
                <mxCell id="14" value="" style="endArrow=none;html=1;strokeWidth=2;" edge="1" parent="1">
                    <mxGeometry width="50" height="50" relative="1" as="geometry">
                        <mxPoint x="620" y="95" as="sourcePoint"/>
                        <mxPoint x="610" y="95" as="targetPoint"/>
                    </mxGeometry>
                </mxCell>
                <mxCell id="15" value="" style="endArrow=none;html=1;strokeWidth=2;" edge="1" parent="1">
                    <mxGeometry width="50" height="50" relative="1" as="geometry">
                        <mxPoint x="470" y="144.86000000000013" as="sourcePoint"/>
                        <mxPoint x="470" y="94.86000000000013" as="targetPoint"/>
                    </mxGeometry>
                </mxCell>
                <mxCell id="16" value="" style="endArrow=none;html=1;strokeWidth=2;" edge="1" parent="1">
                    <mxGeometry width="50" height="50" relative="1" as="geometry">
                        <mxPoint x="480" y="144.86000000000013" as="sourcePoint"/>
                        <mxPoint x="470" y="144.86000000000013" as="targetPoint"/>
                    </mxGeometry>
                </mxCell>
                <mxCell id="17" value="" style="endArrow=none;html=1;strokeWidth=2;" edge="1" parent="1">
                    <mxGeometry width="50" height="50" relative="1" as="geometry">
                        <mxPoint x="480" y="94.86000000000013" as="sourcePoint"/>
                        <mxPoint x="470" y="94.86000000000013" as="targetPoint"/>
                    </mxGeometry>
                </mxCell>
                <mxCell id="18" value="" style="endArrow=none;html=1;strokeWidth=2;" edge="1" parent="1">
                    <mxGeometry width="50" height="50" relative="1" as="geometry">
                        <mxPoint x="590" y="144.38999999999987" as="sourcePoint"/>
                        <mxPoint x="590" y="94.38999999999987" as="targetPoint"/>
                    </mxGeometry>
                </mxCell>
                <mxCell id="19" value="" style="endArrow=none;html=1;strokeWidth=2;" edge="1" parent="1">
                    <mxGeometry width="50" height="50" relative="1" as="geometry">
                        <mxPoint x="590" y="144.38999999999987" as="sourcePoint"/>
                        <mxPoint x="580" y="144.38999999999987" as="targetPoint"/>
                    </mxGeometry>
                </mxCell>
                <mxCell id="20" value="" style="endArrow=none;html=1;strokeWidth=2;" edge="1" parent="1">
                    <mxGeometry width="50" height="50" relative="1" as="geometry">
                        <mxPoint x="590" y="94.38999999999987" as="sourcePoint"/>
                        <mxPoint x="580" y="94.38999999999987" as="targetPoint"/>
                    </mxGeometry>
                </mxCell>
                <mxCell id="21" value="" style="endArrow=none;html=1;strokeWidth=2;" edge="1" parent="1">
                    <mxGeometry width="50" height="50" relative="1" as="geometry">
                        <mxPoint x="349.8299999999999" y="144.5" as="sourcePoint"/>
                        <mxPoint x="349.8299999999999" y="94.5" as="targetPoint"/>
                    </mxGeometry>
                </mxCell>
                <mxCell id="22" value="" style="endArrow=none;html=1;strokeWidth=2;" edge="1" parent="1">
                    <mxGeometry width="50" height="50" relative="1" as="geometry">
                        <mxPoint x="359.8299999999999" y="144.5" as="sourcePoint"/>
                        <mxPoint x="349.8299999999999" y="144.5" as="targetPoint"/>
                    </mxGeometry>
                </mxCell>
                <mxCell id="23" value="" style="endArrow=none;html=1;strokeWidth=2;" edge="1" parent="1">
                    <mxGeometry width="50" height="50" relative="1" as="geometry">
                        <mxPoint x="359.8299999999999" y="94.5" as="sourcePoint"/>
                        <mxPoint x="349.8299999999999" y="94.5" as="targetPoint"/>
                    </mxGeometry>
                </mxCell>
                <mxCell id="24" value="" style="endArrow=none;html=1;strokeWidth=2;" edge="1" parent="1">
                    <mxGeometry width="50" height="50" relative="1" as="geometry">
                        <mxPoint x="449.5500000000002" y="144.86000000000013" as="sourcePoint"/>
                        <mxPoint x="449.5500000000002" y="94.86000000000013" as="targetPoint"/>
                    </mxGeometry>
                </mxCell>
                <mxCell id="25" value="" style="endArrow=none;html=1;strokeWidth=2;" edge="1" parent="1">
                    <mxGeometry width="50" height="50" relative="1" as="geometry">
                        <mxPoint x="449.5500000000002" y="144.86000000000013" as="sourcePoint"/>
                        <mxPoint x="439.5500000000002" y="144.86000000000013" as="targetPoint"/>
                    </mxGeometry>
                </mxCell>
                <mxCell id="26" value="" style="endArrow=none;html=1;strokeWidth=2;" edge="1" parent="1">
                    <mxGeometry width="50" height="50" relative="1" as="geometry">
                        <mxPoint x="449.5500000000002" y="94.86000000000013" as="sourcePoint"/>
                        <mxPoint x="439.5500000000002" y="94.86000000000013" as="targetPoint"/>
                    </mxGeometry>
                </mxCell>
                <mxCell id="27" value="56" style="text;html=1;strokeColor=none;fillColor=none;align=center;verticalAlign=middle;whiteSpace=wrap;rounded=0;fontSize=32;" vertex="1" parent="1">
                    <mxGeometry x="100" y="104.67" width="60" height="30" as="geometry"/>
                </mxCell>
                <mxCell id="34" value="Point&lt;br&gt;2" style="ellipse;whiteSpace=wrap;html=1;aspect=fixed;fontSize=16;strokeColor=#000000;fillColor=#FF3333;fontColor=#000000;" vertex="1" parent="1">
                    <mxGeometry x="790" y="180" width="60" height="60" as="geometry"/>
                </mxCell>
                <mxCell id="35" value="" style="edgeStyle=orthogonalEdgeStyle;html=1;exitX=1;exitY=0.75;exitDx=0;exitDy=0;fontSize=32;endArrow=none;endFill=1;endSize=20;" edge="1" parent="1" source="3" target="34">
                    <mxGeometry relative="1" as="geometry">
                        <mxPoint x="760" y="220" as="targetPoint"/>
                        <mxPoint x="760" y="100.00000000000023" as="sourcePoint"/>
                        <Array as="points">
                            <mxPoint x="820" y="140"/>
                        </Array>
                    </mxGeometry>
                </mxCell>
                <mxCell id="36" value="Point&lt;br&gt;1" style="ellipse;whiteSpace=wrap;html=1;aspect=fixed;fontSize=16;strokeColor=#000000;fillColor=#FF3333;fontColor=#000000;" vertex="1" parent="1">
                    <mxGeometry x="790" y="-10" width="60" height="60" as="geometry"/>
                </mxCell>
                <mxCell id="39" value="..." style="text;html=1;strokeColor=none;fillColor=none;align=center;verticalAlign=bottom;whiteSpace=wrap;rounded=0;fontSize=50;fontStyle=1" vertex="1" parent="1">
                    <mxGeometry x="785" y="280" width="70" height="30" as="geometry"/>
                </mxCell>
                <mxCell id="40" value="..." style="text;html=1;strokeColor=none;fillColor=none;align=center;verticalAlign=bottom;whiteSpace=wrap;rounded=0;fontSize=50;fontStyle=1" vertex="1" parent="1">
                    <mxGeometry x="785" y="-50" width="70" height="30" as="geometry"/>
                </mxCell>
            </root>
        </mxGraphModel>
    </diagram>
</mxfile>